<?xml version="1.0" encoding="utf-8"?>
<!-- Generator: Adobe Illustrator 21.0.0, SVG Export Plug-In . SVG Version: 6.00 Build 0)  -->
<svg version="1.1" id="Layer_1" xmlns="http://www.w3.org/2000/svg" xmlns:xlink="http://www.w3.org/1999/xlink" x="0px" y="0px"
	 viewBox="0 0 601 601" style="enable-background:new 0 0 601 601;" xml:space="preserve">
<style type="text/css">
	.st0{fill:#E7E6EA;}
	.st1{fill:#F2F2F4;}
	.st2{fill:#D60537;}
	.st3{fill:#FF0333;}
</style>
<g>
	<g>
		<path class="st0" d="M184.2,346.9l233.7-94.4l75.5,186.8c22.1,54.8-4.6,117.8-59.4,139.9l-34.3,13.9
			c-54.8,22.1-117.8-4.6-139.9-59.4L184.2,346.9z"/>
	</g>
	<g>
		<path class="st1" d="M391,263.3l75.5,186.8C488.6,505,461.9,568,407,590.1l26.9-10.9c54.8-22.1,81.6-85.1,59.4-139.9l-75.5-186.8
			C417.9,252.5,396.4,261.1,391,263.3z"/>
	</g>
	<path class="st2" d="M188.9,351.4l227.2-91.8c3.1-1.3,4.7-4.9,3.4-8L347,72.3c-23.9-59.1-91.8-87.9-150.9-64.1l-23.6,9.5
		c-59.1,23.9-87.9,91.8-64.1,150.9L180.9,348C182.2,351.2,185.8,352.7,188.9,351.4z"/>
	<path class="st3" d="M196.1,8.2l-23.6,9.5c-0.9,0.3-1.7,0.7-2.5,1.1c58.5-22,124.8,6.8,148.3,65.1l72.5,179.4
		c1.3,3.1-0.2,6.7-3.4,8l28.7-11.6c3.1-1.3,4.7-4.9,3.4-8L347,72.3C323.1,13.2,255.2-15.6,196.1,8.2z"/>
</g>
</svg>
